<mxfile host="app.diagrams.net" modified="2021-06-03T02:41:39.468Z" agent="5.0 (Macintosh; Intel Mac OS X 10_15_7) AppleWebKit/537.36 (KHTML, like Gecko) Chrome/90.0.4430.85 Safari/537.36" etag="Bsxqy-QsnzIgSZjOoIkS" version="14.6.12" type="github">
  <diagram id="4XBYBQRtXBPEYnUaGt-2" name="Page-1">
    <mxGraphModel dx="903" dy="589" grid="1" gridSize="10" guides="1" tooltips="1" connect="1" arrows="1" fold="1" page="1" pageScale="1" pageWidth="2339" pageHeight="3300" math="0" shadow="0">
      <root>
        <mxCell id="0" />
        <mxCell id="1" parent="0" />
        <mxCell id="ha0jqxZ2LLTAuly1mBXd-2" style="edgeStyle=orthogonalEdgeStyle;rounded=0;orthogonalLoop=1;jettySize=auto;html=1;endArrow=classic;endFill=1;startArrow=classic;startFill=1;fontSize=17;" parent="1" source="Q_vMsS0XvWnBYi7YCMDR-4" target="Q_vMsS0XvWnBYi7YCMDR-5" edge="1">
          <mxGeometry relative="1" as="geometry">
            <mxPoint x="420" y="533.5" as="targetPoint" />
          </mxGeometry>
        </mxCell>
        <mxCell id="ha0jqxZ2LLTAuly1mBXd-24" style="rounded=0;orthogonalLoop=1;jettySize=auto;html=1;exitX=0.75;exitY=0;exitDx=0;exitDy=0;entryX=0;entryY=0.5;entryDx=0;entryDy=0;startArrow=classic;startFill=1;endArrow=classic;endFill=1;fontSize=17;" parent="1" source="Q_vMsS0XvWnBYi7YCMDR-4" target="ha0jqxZ2LLTAuly1mBXd-23" edge="1">
          <mxGeometry relative="1" as="geometry" />
        </mxCell>
        <mxCell id="Q_vMsS0XvWnBYi7YCMDR-4" value="" style="shape=image;html=1;verticalAlign=top;verticalLabelPosition=bottom;labelBackgroundColor=#ffffff;imageAspect=0;aspect=fixed;image=https://cdn2.iconfinder.com/data/icons/whcompare-isometric-web-hosting-servers/50/web-browser-on-laptop-128.png;fontSize=17;" parent="1" vertex="1">
          <mxGeometry x="240" y="469.5" width="128" height="128" as="geometry" />
        </mxCell>
        <mxCell id="ha0jqxZ2LLTAuly1mBXd-3" style="edgeStyle=orthogonalEdgeStyle;rounded=0;orthogonalLoop=1;jettySize=auto;html=1;exitX=1;exitY=0.25;exitDx=0;exitDy=0;startArrow=none;startFill=0;endArrow=classic;endFill=1;fontSize=17;" parent="1" edge="1">
          <mxGeometry relative="1" as="geometry">
            <mxPoint x="527" y="512" as="sourcePoint" />
            <mxPoint x="607" y="511.5" as="targetPoint" />
            <Array as="points">
              <mxPoint x="607" y="512.5" />
            </Array>
          </mxGeometry>
        </mxCell>
        <mxCell id="ha0jqxZ2LLTAuly1mBXd-20" style="rounded=0;orthogonalLoop=1;jettySize=auto;html=1;exitX=0.75;exitY=0;exitDx=0;exitDy=0;entryX=0;entryY=0.5;entryDx=0;entryDy=0;startArrow=classic;startFill=1;endArrow=classic;endFill=1;fontSize=17;" parent="1" source="Q_vMsS0XvWnBYi7YCMDR-5" target="ha0jqxZ2LLTAuly1mBXd-19" edge="1">
          <mxGeometry relative="1" as="geometry" />
        </mxCell>
        <mxCell id="Q_vMsS0XvWnBYi7YCMDR-5" value="" style="shape=image;html=1;verticalAlign=top;verticalLabelPosition=bottom;labelBackgroundColor=#ffffff;imageAspect=0;aspect=fixed;image=https://cdn2.iconfinder.com/data/icons/whcompare-isometric-web-hosting-servers/50/firewall-128.png;fontSize=17;" parent="1" vertex="1">
          <mxGeometry x="430" y="478.5" width="110" height="110" as="geometry" />
        </mxCell>
        <mxCell id="ha0jqxZ2LLTAuly1mBXd-5" style="edgeStyle=orthogonalEdgeStyle;rounded=0;orthogonalLoop=1;jettySize=auto;html=1;entryX=0.991;entryY=0.664;entryDx=0;entryDy=0;entryPerimeter=0;startArrow=none;startFill=0;endArrow=classic;endFill=1;fontSize=17;" parent="1" edge="1">
          <mxGeometry relative="1" as="geometry">
            <mxPoint x="607" y="551.5" as="sourcePoint" />
            <mxPoint x="526.01" y="551.54" as="targetPoint" />
          </mxGeometry>
        </mxCell>
        <mxCell id="Q_vMsS0XvWnBYi7YCMDR-6" value="" style="aspect=fixed;perimeter=ellipsePerimeter;html=1;align=center;shadow=0;dashed=0;spacingTop=3;image;image=img/lib/active_directory/generic_server.svg;fontSize=17;" parent="1" vertex="1">
          <mxGeometry x="616.68" y="465" width="66.64" height="119" as="geometry" />
        </mxCell>
        <mxCell id="Q_vMsS0XvWnBYi7YCMDR-8" value="用户A" style="text;html=1;align=center;verticalAlign=middle;resizable=0;points=[];autosize=1;strokeColor=none;fontSize=17;" parent="1" vertex="1">
          <mxGeometry x="274" y="599.5" width="60" height="30" as="geometry" />
        </mxCell>
        <mxCell id="Q_vMsS0XvWnBYi7YCMDR-9" value="NAT网关" style="text;html=1;align=center;verticalAlign=middle;resizable=0;points=[];autosize=1;strokeColor=none;fontSize=17;" parent="1" vertex="1">
          <mxGeometry x="445" y="599.5" width="80" height="30" as="geometry" />
        </mxCell>
        <mxCell id="Q_vMsS0XvWnBYi7YCMDR-23" value="STUN服务器" style="text;html=1;align=center;verticalAlign=middle;resizable=0;points=[];autosize=1;strokeColor=none;fontSize=17;" parent="1" vertex="1">
          <mxGeometry x="594.9999999999999" y="599.5" width="110" height="30" as="geometry" />
        </mxCell>
        <mxCell id="ha0jqxZ2LLTAuly1mBXd-12" style="edgeStyle=orthogonalEdgeStyle;rounded=0;orthogonalLoop=1;jettySize=auto;html=1;exitX=1;exitY=0.5;exitDx=0;exitDy=0;startArrow=classic;startFill=1;endArrow=classic;endFill=1;fontSize=17;" parent="1" source="ha0jqxZ2LLTAuly1mBXd-6" edge="1">
          <mxGeometry relative="1" as="geometry">
            <mxPoint x="1110" y="525" as="targetPoint" />
          </mxGeometry>
        </mxCell>
        <mxCell id="ha0jqxZ2LLTAuly1mBXd-6" value="" style="shape=image;html=1;verticalAlign=top;verticalLabelPosition=bottom;labelBackgroundColor=#ffffff;imageAspect=0;aspect=fixed;image=https://cdn2.iconfinder.com/data/icons/whcompare-isometric-web-hosting-servers/50/firewall-128.png;fontSize=17;" parent="1" vertex="1">
          <mxGeometry x="940" y="470" width="110" height="110" as="geometry" />
        </mxCell>
        <mxCell id="ha0jqxZ2LLTAuly1mBXd-7" value="NAT网关" style="text;html=1;align=center;verticalAlign=middle;resizable=0;points=[];autosize=1;strokeColor=none;fontSize=17;" parent="1" vertex="1">
          <mxGeometry x="955" y="600" width="80" height="30" as="geometry" />
        </mxCell>
        <mxCell id="ha0jqxZ2LLTAuly1mBXd-8" value="" style="aspect=fixed;perimeter=ellipsePerimeter;html=1;align=center;shadow=0;dashed=0;spacingTop=3;image;image=img/lib/active_directory/generic_server.svg;fontSize=17;" parent="1" vertex="1">
          <mxGeometry x="796.68" y="465.5" width="66.64" height="119" as="geometry" />
        </mxCell>
        <mxCell id="ha0jqxZ2LLTAuly1mBXd-9" value="STUN服务器" style="text;html=1;align=center;verticalAlign=middle;resizable=0;points=[];autosize=1;strokeColor=none;fontSize=17;" parent="1" vertex="1">
          <mxGeometry x="774.9999999999999" y="601" width="110" height="30" as="geometry" />
        </mxCell>
        <mxCell id="ha0jqxZ2LLTAuly1mBXd-25" style="rounded=0;orthogonalLoop=1;jettySize=auto;html=1;exitX=0.5;exitY=0;exitDx=0;exitDy=0;startArrow=classic;startFill=1;endArrow=classic;endFill=1;entryX=1;entryY=0.5;entryDx=0;entryDy=0;fontSize=17;" parent="1" source="ha0jqxZ2LLTAuly1mBXd-10" target="ha0jqxZ2LLTAuly1mBXd-23" edge="1">
          <mxGeometry relative="1" as="geometry">
            <mxPoint x="860" y="150" as="targetPoint" />
          </mxGeometry>
        </mxCell>
        <mxCell id="ha0jqxZ2LLTAuly1mBXd-10" value="" style="shape=image;html=1;verticalAlign=top;verticalLabelPosition=bottom;labelBackgroundColor=#ffffff;imageAspect=0;aspect=fixed;image=https://cdn2.iconfinder.com/data/icons/whcompare-isometric-web-hosting-servers/50/web-browser-on-laptop-128.png;fontSize=17;" parent="1" vertex="1">
          <mxGeometry x="1090" y="465" width="128" height="128" as="geometry" />
        </mxCell>
        <mxCell id="ha0jqxZ2LLTAuly1mBXd-11" value="用户B" style="text;html=1;align=center;verticalAlign=middle;resizable=0;points=[];autosize=1;strokeColor=none;fontSize=17;" parent="1" vertex="1">
          <mxGeometry x="1124" y="600" width="60" height="30" as="geometry" />
        </mxCell>
        <mxCell id="ha0jqxZ2LLTAuly1mBXd-21" style="edgeStyle=none;rounded=0;orthogonalLoop=1;jettySize=auto;html=1;exitX=1;exitY=0.5;exitDx=0;exitDy=0;entryX=0.25;entryY=0;entryDx=0;entryDy=0;startArrow=classic;startFill=1;endArrow=classic;endFill=1;fontSize=17;" parent="1" source="ha0jqxZ2LLTAuly1mBXd-19" target="ha0jqxZ2LLTAuly1mBXd-6" edge="1">
          <mxGeometry relative="1" as="geometry" />
        </mxCell>
        <mxCell id="ha0jqxZ2LLTAuly1mBXd-19" value="" style="image;html=1;image=img/lib/clip_art/networking/Print_Server_128x128.png;fontSize=17;" parent="1" vertex="1">
          <mxGeometry x="701.68" y="340" width="80" height="80" as="geometry" />
        </mxCell>
        <mxCell id="ha0jqxZ2LLTAuly1mBXd-22" value="TURN服务器" style="text;html=1;align=center;verticalAlign=middle;resizable=0;points=[];autosize=1;strokeColor=none;fontSize=17;" parent="1" vertex="1">
          <mxGeometry x="686.6799999999998" y="415" width="110" height="30" as="geometry" />
        </mxCell>
        <mxCell id="ha0jqxZ2LLTAuly1mBXd-23" value="" style="aspect=fixed;perimeter=ellipsePerimeter;html=1;align=center;shadow=0;dashed=0;spacingTop=3;image;image=img/lib/active_directory/internet_cloud.svg;fontSize=17;" parent="1" vertex="1">
          <mxGeometry x="638.5" y="160" width="206.35" height="130" as="geometry" />
        </mxCell>
        <mxCell id="ha0jqxZ2LLTAuly1mBXd-26" style="edgeStyle=orthogonalEdgeStyle;rounded=0;orthogonalLoop=1;jettySize=auto;html=1;exitX=1;exitY=0.25;exitDx=0;exitDy=0;startArrow=none;startFill=0;endArrow=classic;endFill=1;fontSize=17;" parent="1" edge="1">
          <mxGeometry relative="1" as="geometry">
            <mxPoint x="870" y="504.5" as="sourcePoint" />
            <mxPoint x="950" y="504.5" as="targetPoint" />
            <Array as="points">
              <mxPoint x="950" y="505.5" />
            </Array>
          </mxGeometry>
        </mxCell>
        <mxCell id="ha0jqxZ2LLTAuly1mBXd-27" style="edgeStyle=orthogonalEdgeStyle;rounded=0;orthogonalLoop=1;jettySize=auto;html=1;entryX=0.991;entryY=0.664;entryDx=0;entryDy=0;entryPerimeter=0;startArrow=none;startFill=0;endArrow=classic;endFill=1;fontSize=17;" parent="1" edge="1">
          <mxGeometry relative="1" as="geometry">
            <mxPoint x="950" y="544.5" as="sourcePoint" />
            <mxPoint x="869.01" y="544.54" as="targetPoint" />
          </mxGeometry>
        </mxCell>
        <mxCell id="FRg9I-5cg8DjkcOESlk7-1" value="网络" style="text;html=1;align=center;verticalAlign=middle;resizable=0;points=[];autosize=1;strokeColor=none;fontSize=17;" parent="1" vertex="1">
          <mxGeometry x="716.6699999999998" y="290" width="50" height="30" as="geometry" />
        </mxCell>
      </root>
    </mxGraphModel>
  </diagram>
</mxfile>
